<svg width="966" height="765" viewBox="0 0 966 765" fill="none" xmlns="http://www.w3.org/2000/svg">
<path d="M354.5 19H353.096L352.366 20.1984L259.387 172.663L175.41 300.628L174.558 301.927L175.344 303.266L259.344 446.266L261.488 449.915L263.649 446.277L423.923 176.5H596H600.268L598.181 172.777L512.681 20.2774L511.964 19H510.5H354.5Z" fill="#111111" stroke="#111111" stroke-width="5"/>
<path d="M528 308.5L700.5 7.5L789 156.5L700.5 308.5H528Z" fill="#111111"/>
<path d="M438 460.5H615.5L526.75 610.25H700.5L874.5 308.5L962.5 460.5L789 760H615.5L526.75 610.25L438 760L353.5 611L438 460.5Z" fill="#111111"/>
<path d="M526.75 610.25L615.5 460.5H438L353.5 611L438 760L526.75 610.25ZM526.75 610.25L615.5 760H789L962.5 460.5L874.5 308.5L700.5 610.25H526.75ZM700.5 7.5L528 308.5H700.5L789 156.5L700.5 7.5Z" stroke="#111111" stroke-width="5"/>
<path d="M5 3L92 153.5L191 3H5Z" fill="#111111" stroke="#111111" stroke-width="5"/>
</svg>
