<svg width="258" height="24" viewBox="0 0 258 24" fill="none" xmlns="http://www.w3.org/2000/svg">
<g opacity="0.9">
<path d="M250.862 4.487L252.549 2.799C252.901 2.44733 253.378 2.24976 253.875 2.24976C254.372 2.24976 254.849 2.44733 255.201 2.799C255.553 3.15068 255.75 3.62766 255.75 4.125C255.75 4.62235 255.553 5.09933 255.201 5.451L240.832 19.82C240.303 20.3484 239.651 20.7367 238.935 20.95L236.25 21.75L237.05 19.065C237.263 18.3486 237.652 17.6967 238.18 17.168L250.863 4.487H250.862ZM250.862 4.487L253.5 7.125" stroke="white" stroke-width="1.5" stroke-linecap="round" stroke-linejoin="round"/>
</g>
<g opacity="0.9">
<path d="M201.75 7.5L204.75 9.75L201.75 12M206.25 12H209.25M200.25 20.25H213.75C214.347 20.25 214.919 20.0129 215.341 19.591C215.763 19.169 216 18.5967 216 18V6C216 5.40326 215.763 4.83097 215.341 4.40901C214.919 3.98705 214.347 3.75 213.75 3.75H200.25C199.653 3.75 199.081 3.98705 198.659 4.40901C198.237 4.83097 198 5.40326 198 6V18C198 18.5967 198.237 19.169 198.659 19.591C199.081 20.0129 199.653 20.25 200.25 20.25Z" stroke="white" stroke-width="1.5" stroke-linecap="round" stroke-linejoin="round"/>
</g>
<g opacity="0.9">
<path d="M173.25 6.75L178.5 12L173.25 17.25M162.75 17.25L157.5 12L162.75 6.75M170.25 3.75L165.75 20.25" stroke="white" stroke-width="1.5" stroke-linecap="round" stroke-linejoin="round"/>
</g>
<g opacity="0.9">
<path d="M137.25 8.511C138.134 8.795 138.75 9.639 138.75 10.608V14.894C138.75 16.03 137.903 16.994 136.77 17.087C136.43 17.114 136.09 17.139 135.75 17.159V20.25L132.75 17.25C131.396 17.25 130.056 17.195 128.73 17.087C128.441 17.0637 128.161 16.9813 127.905 16.845M137.25 8.511C137.095 8.46127 136.936 8.42939 136.774 8.416C134.096 8.19368 131.404 8.19368 128.726 8.416C127.595 8.51 126.75 9.473 126.75 10.608V14.894C126.75 15.731 127.21 16.474 127.905 16.845M137.25 8.511V6.637C137.25 5.016 136.098 3.611 134.49 3.402C132.421 3.13379 130.336 2.99951 128.25 3C126.135 3 124.052 3.137 122.01 3.402C120.402 3.611 119.25 5.016 119.25 6.637V12.863C119.25 14.484 120.402 15.889 122.01 16.098C122.587 16.173 123.167 16.238 123.75 16.292V21L127.905 16.845" stroke="white" stroke-width="1.5" stroke-linecap="round" stroke-linejoin="round"/>
</g>
<g opacity="0.9">
<path d="M49.5 19.5H52.5M45.75 21.75H56.25C56.8467 21.75 57.419 21.5129 57.841 21.091C58.2629 20.669 58.5 20.0967 58.5 19.5V4.5C58.5 3.90326 58.2629 3.33097 57.841 2.90901C57.419 2.48705 56.8467 2.25 56.25 2.25H45.75C45.1533 2.25 44.581 2.48705 44.159 2.90901C43.7371 3.33097 43.5 3.90326 43.5 4.5V19.5C43.5 20.0967 43.7371 20.669 44.159 21.091C44.581 21.5129 45.1533 21.75 45.75 21.75Z" stroke="white" stroke-width="1.5" stroke-linecap="round" stroke-linejoin="round"/>
</g>
<g opacity="0.9">
<path d="M87 17.25V18.257C87 18.6511 86.9224 19.0414 86.7716 19.4055C86.6208 19.7696 86.3997 20.1004 86.121 20.379L85.5 21H94.5L93.879 20.379C93.6003 20.1004 93.3792 19.7696 93.2284 19.4055C93.0776 19.0414 93 18.6511 93 18.257V17.25M99 5.25V15C99 15.5967 98.7629 16.169 98.341 16.591C97.919 17.0129 97.3467 17.25 96.75 17.25H83.25C82.6533 17.25 82.081 17.0129 81.659 16.591C81.2371 16.169 81 15.5967 81 15V5.25M99 5.25C99 4.65326 98.7629 4.08097 98.341 3.65901C97.919 3.23705 97.3467 3 96.75 3H83.25C82.6533 3 82.081 3.23705 81.659 3.65901C81.2371 4.08097 81 4.65326 81 5.25M99 5.25V12C99 12.5967 98.7629 13.169 98.341 13.591C97.919 14.0129 97.3467 14.25 96.75 14.25H83.25C82.6533 14.25 82.081 14.0129 81.659 13.591C81.2371 13.169 81 12.5967 81 12V5.25" stroke="white" stroke-width="1.5" stroke-linecap="round" stroke-linejoin="round"/>
</g>
<g opacity="0.9">
<path d="M10.5 1.5H8.25C7.65326 1.5 7.08097 1.73705 6.65901 2.15901C6.23705 2.58097 6 3.15326 6 3.75V20.25C6 20.8467 6.23705 21.419 6.65901 21.841C7.08097 22.2629 7.65326 22.5 8.25 22.5H15.75C16.3467 22.5 16.919 22.2629 17.341 21.841C17.7629 21.419 18 20.8467 18 20.25V3.75C18 3.15326 17.7629 2.58097 17.341 2.15901C16.919 1.73705 16.3467 1.5 15.75 1.5H13.5M10.5 1.5V3H13.5V1.5M10.5 1.5H13.5M10.5 20.25H13.5" stroke="white" stroke-width="1.5" stroke-linecap="round" stroke-linejoin="round"/>
</g>
</svg>
