<svg width="660" height="660" viewBox="0 0 660 660" fill="none" xmlns="http://www.w3.org/2000/svg">
<g clip-path="url(#clip0_6741_31320)">
<path d="M2.56204 284.089C0.451204 279.553 2.94494 274.211 7.77744 272.916L80.1697 253.518L121.323 407.103L48.9303 426.5C44.0978 427.795 39.267 424.415 38.827 419.432L32.697 349.985C32.6148 349.054 32.371 348.144 31.9765 347.296L2.56204 284.089Z" fill="#5627FF"/>
<path d="M621.174 419.847C620.734 424.831 615.903 428.211 611.07 426.916L538.673 407.517L579.825 253.935L652.222 273.333C657.055 274.628 659.549 279.971 657.438 284.507L628.023 347.713C627.629 348.56 627.385 349.47 627.303 350.402L621.174 419.847Z" fill="#5627FF"/>
<path d="M302.044 48.1049C319.348 38.1362 340.65 38.1363 357.954 48.1049L559.954 164.479C577.306 174.475 587.999 192.977 587.999 213.002V446.998C587.999 467.023 577.306 485.525 559.954 495.521L357.954 611.895C340.65 621.864 319.348 621.864 302.044 611.895L100.044 495.521C82.6922 485.525 71.9989 467.023 71.9989 446.998L71.9989 213.002C71.9989 192.977 82.6922 174.475 100.044 164.479L302.044 48.1049Z" fill="#F3F3F3"/>
<path fill-rule="evenodd" clip-rule="evenodd" d="M553.963 174.877L351.963 58.5028C338.368 50.6703 321.63 50.6703 308.035 58.5028L106.034 174.877C92.4008 182.731 83.9989 197.268 83.9989 213.002L83.9989 446.998C83.9989 462.732 92.4008 477.269 106.034 485.123L308.035 601.497C321.63 609.33 338.368 609.33 351.963 601.497L553.963 485.123C567.597 477.269 575.999 462.732 575.999 446.998V213.002C575.999 197.268 567.597 182.731 553.963 174.877ZM357.954 48.1049C340.65 38.1363 319.348 38.1362 302.044 48.1049L100.044 164.479C82.6922 174.475 71.9989 192.977 71.9989 213.002L71.9989 446.998C71.9989 467.023 82.6922 485.525 100.044 495.521L302.044 611.895C319.348 621.864 340.65 621.864 357.954 611.895L559.954 495.521C577.306 485.525 587.999 467.023 587.999 446.998V213.002C587.999 192.977 577.306 174.475 559.954 164.479L357.954 48.1049Z" fill="#05060F"/>
<path d="M308.062 101.617C321.644 93.8055 338.354 93.8055 351.936 101.617L516.936 196.516C530.585 204.366 538.999 218.912 538.999 234.657V425.343C538.999 441.088 530.585 455.634 516.936 463.484L351.936 558.383C338.354 566.194 321.644 566.194 308.062 558.383L143.062 463.484C129.413 455.634 120.999 441.088 120.999 425.343V234.657C120.999 218.912 129.413 204.366 143.062 196.516L308.062 101.617Z" fill="white"/>
<g clip-path="url(#clip1_6741_31320)">
<path fill-rule="evenodd" clip-rule="evenodd" d="M334.526 138.214C331.724 136.595 328.272 136.595 325.47 138.214L305.999 149.467C303.201 151.084 301.477 154.07 301.477 157.302V179.984C301.477 183.215 303.201 186.201 305.999 187.818L325.47 199.071C328.272 200.69 331.724 200.69 334.526 199.071L353.997 187.818C356.795 186.201 358.519 183.215 358.519 179.984V157.302C358.519 154.07 356.795 151.084 353.997 149.467L334.526 138.214ZM315.132 160.255C314.809 160.068 314.405 160.301 314.405 160.674V165.087C314.405 165.436 314.593 165.759 314.898 165.931L321.51 169.668C321.713 169.783 321.838 169.998 321.838 170.231V175.255C321.838 175.441 321.638 175.558 321.477 175.466L314.767 171.674C314.605 171.583 314.405 171.699 314.405 171.885V176.727C314.405 177.073 314.59 177.393 314.89 177.567L326.282 184.139C326.605 184.325 327.009 184.092 327.009 183.719V167.667C327.009 167.32 326.824 167 326.524 166.827L315.132 160.255ZM345.592 160.674C345.592 160.301 345.188 160.068 344.865 160.255L333.473 166.827C333.173 167 332.988 167.32 332.988 167.667V183.719C332.988 184.092 333.392 184.325 333.715 184.139L345.107 177.567C345.407 177.393 345.592 177.073 345.592 176.727V171.885C345.592 171.699 345.392 171.583 345.23 171.674L338.521 175.466C338.359 175.558 338.159 175.441 338.159 175.255V170.231C338.159 169.998 338.284 169.783 338.487 169.668L345.1 165.931C345.404 165.759 345.592 165.436 345.592 165.087V160.674ZM330.958 151.413C330.363 151.075 329.634 151.075 329.039 151.413L319.664 156.751C319.339 156.936 319.338 157.404 319.662 157.592L324.348 160.298C324.545 160.412 324.788 160.413 324.987 160.302L329.683 157.669C329.879 157.559 330.118 157.559 330.315 157.669L335.01 160.302C335.209 160.413 335.452 160.412 335.65 160.298L340.335 157.592C340.66 157.404 340.658 156.936 340.333 156.751L330.958 151.413Z" fill="#05060F"/>
</g>
<path d="M57.9989 236H601.999V384H57.9989V236Z" fill="#937AFF"/>
<path d="M185.615 300V259.273H202.28C205.343 259.273 207.974 259.863 210.175 261.043C212.389 262.223 214.093 263.873 215.286 265.994C216.479 268.102 217.075 270.542 217.075 273.313C217.075 276.097 216.466 278.536 215.246 280.631C214.039 282.725 212.309 284.349 210.056 285.503C207.802 286.656 205.117 287.233 202.002 287.233H191.641V279.656H200.252C201.776 279.656 203.042 279.391 204.05 278.861C205.071 278.331 205.84 277.588 206.357 276.634C206.887 275.679 207.152 274.572 207.152 273.313C207.152 272.027 206.887 270.92 206.357 269.992C205.84 269.05 205.071 268.321 204.05 267.804C203.029 267.287 201.763 267.028 200.252 267.028H195.2V300H185.615Z" fill="white"/>
<path d="M224.332 300V259.273H240.997C244.059 259.273 246.691 259.823 248.891 260.923C251.105 262.01 252.809 263.568 254.002 265.597C255.195 267.625 255.792 270.025 255.792 272.795C255.792 275.58 255.182 277.959 253.963 279.935C252.756 281.897 251.019 283.395 248.752 284.429C246.498 285.45 243.82 285.96 240.718 285.96H230.059V278.364H238.968C240.48 278.364 241.746 278.165 242.766 277.767C243.787 277.369 244.556 276.76 245.073 275.938C245.604 275.102 245.869 274.055 245.869 272.795C245.869 271.51 245.604 270.442 245.073 269.594C244.556 268.745 243.787 268.109 242.766 267.685C241.746 267.247 240.48 267.028 238.968 267.028H233.917V300H224.332ZM247.062 281.406L257.204 300H246.704L236.781 281.406H247.062Z" fill="white"/>
<path d="M301.817 279.636C301.817 284.117 300.962 287.916 299.252 291.031C297.541 294.134 295.221 296.5 292.291 298.131C289.375 299.748 286.093 300.557 282.448 300.557C278.802 300.557 275.514 299.742 272.584 298.111C269.667 296.48 267.354 294.107 265.644 290.992C263.947 287.876 263.098 284.091 263.098 279.636C263.098 275.155 263.947 271.364 265.644 268.261C267.354 265.146 269.667 262.779 272.584 261.162C275.514 259.531 278.802 258.716 282.448 258.716C286.093 258.716 289.375 259.531 292.291 261.162C295.221 262.779 297.541 265.146 299.252 268.261C300.962 271.364 301.817 275.155 301.817 279.636ZM292.033 279.636C292.033 276.932 291.648 274.652 290.879 272.795C290.11 270.939 289.01 269.534 287.578 268.58C286.146 267.625 284.436 267.148 282.448 267.148C280.472 267.148 278.769 267.625 277.337 268.58C275.905 269.534 274.805 270.939 274.036 272.795C273.267 274.652 272.882 276.932 272.882 279.636C272.882 282.341 273.267 284.621 274.036 286.477C274.805 288.333 275.905 289.739 277.337 290.693C278.769 291.648 280.472 292.125 282.448 292.125C284.436 292.125 286.146 291.648 287.578 290.693C289.01 289.739 290.11 288.333 290.879 286.477C291.648 284.621 292.033 282.341 292.033 279.636Z" fill="white"/>
<path d="M324.828 300H309.913V259.273H324.848C328.984 259.273 332.551 260.088 335.547 261.719C338.543 263.336 340.85 265.67 342.467 268.719C344.098 271.755 344.913 275.387 344.913 279.617C344.913 283.859 344.098 287.505 342.467 290.554C340.85 293.603 338.536 295.943 335.527 297.574C332.531 299.191 328.965 300 324.828 300ZM319.499 291.807H324.45C326.797 291.807 328.772 291.409 330.376 290.614C331.994 289.805 333.22 288.512 334.055 286.736C334.891 284.946 335.308 282.573 335.308 279.617C335.308 276.673 334.884 274.313 334.036 272.537C333.2 270.747 331.967 269.455 330.337 268.659C328.719 267.864 326.724 267.466 324.351 267.466H319.499V291.807Z" fill="white"/>
<path d="M377.744 259.273H387.329V285.582C387.329 288.605 386.606 291.237 385.161 293.477C383.729 295.718 381.721 297.455 379.136 298.688C376.564 299.92 373.574 300.537 370.167 300.537C366.72 300.537 363.71 299.92 361.138 298.688C358.566 297.455 356.565 295.718 355.133 293.477C353.714 291.237 353.005 288.605 353.005 285.582V259.273H362.59V284.747C362.59 286.179 362.902 287.458 363.525 288.585C364.161 289.712 365.049 290.594 366.19 291.23C367.33 291.853 368.656 292.165 370.167 292.165C371.678 292.165 372.997 291.853 374.124 291.23C375.264 290.594 376.153 289.712 376.789 288.585C377.425 287.458 377.744 286.179 377.744 284.747V259.273Z" fill="white"/>
<path d="M432.682 273.929H422.978C422.845 272.882 422.567 271.947 422.143 271.125C421.718 270.29 421.155 269.574 420.452 268.977C419.763 268.381 418.948 267.93 418.006 267.625C417.078 267.307 416.051 267.148 414.924 267.148C412.922 267.148 411.192 267.638 409.734 268.619C408.288 269.6 407.175 271.026 406.393 272.895C405.61 274.751 405.219 276.998 405.219 279.636C405.219 282.381 405.61 284.681 406.393 286.537C407.188 288.393 408.308 289.792 409.753 290.733C411.199 291.661 412.902 292.125 414.864 292.125C415.965 292.125 416.966 291.986 417.867 291.707C418.782 291.416 419.591 290.998 420.293 290.455C420.996 289.911 421.573 289.248 422.023 288.466C422.487 287.67 422.806 286.769 422.978 285.761L432.682 285.821C432.497 287.637 431.967 289.42 431.092 291.17C430.23 292.907 429.043 294.492 427.532 295.923C426.02 297.342 424.191 298.469 422.043 299.304C419.895 300.139 417.436 300.557 414.665 300.557C410.993 300.557 407.705 299.748 404.802 298.131C401.912 296.5 399.625 294.127 397.941 291.011C396.27 287.883 395.435 284.091 395.435 279.636C395.435 275.155 396.284 271.364 397.981 268.261C399.678 265.146 401.978 262.779 404.881 261.162C407.798 259.531 411.059 258.716 414.665 258.716C417.118 258.716 419.378 259.054 421.447 259.73C423.528 260.406 425.364 261.394 426.955 262.693C428.546 263.992 429.839 265.583 430.833 267.466C431.827 269.349 432.444 271.503 432.682 273.929Z" fill="white"/>
<path d="M439.273 267.088V259.273H473.517V267.088H461.128V300H451.662V267.088H439.273Z" fill="white"/>
<path d="M197.13 359H182.215V318.273H197.15C201.286 318.273 204.852 319.088 207.849 320.719C210.845 322.336 213.152 324.67 214.769 327.719C216.4 330.755 217.215 334.387 217.215 338.617C217.215 342.859 216.4 346.505 214.769 349.554C213.152 352.603 210.838 354.943 207.829 356.574C204.833 358.191 201.266 359 197.13 359ZM191.8 350.807H196.752C199.099 350.807 201.074 350.409 202.678 349.614C204.296 348.805 205.522 347.512 206.357 345.736C207.192 343.946 207.61 341.573 207.61 338.617C207.61 335.673 207.186 333.313 206.337 331.537C205.502 329.747 204.269 328.455 202.638 327.659C201.021 326.864 199.026 326.466 196.653 326.466H191.8V350.807Z" fill="white"/>
<path d="M225.307 359V318.273H253.506V326.088H234.892V334.719H252.054V342.534H234.892V351.185H253.525V359H225.307Z" fill="white"/>
<path d="M284.089 330.384C283.943 328.899 283.333 327.739 282.259 326.903C281.185 326.068 279.674 325.651 277.725 325.651C276.426 325.651 275.339 325.83 274.464 326.188C273.589 326.532 272.926 327.003 272.475 327.599C272.037 328.196 271.819 328.879 271.819 329.648C271.792 330.271 271.918 330.828 272.197 331.318C272.488 331.795 272.899 332.213 273.429 332.571C273.973 332.929 274.616 333.247 275.358 333.526C276.114 333.791 276.949 334.023 277.864 334.222L281.404 335.037C283.366 335.461 285.116 336.031 286.654 336.747C288.192 337.463 289.491 338.325 290.552 339.332C291.612 340.327 292.421 341.48 292.978 342.793C293.535 344.105 293.82 345.583 293.833 347.227C293.82 349.786 293.17 351.987 291.884 353.83C290.598 355.659 288.755 357.071 286.356 358.065C283.969 359.046 281.092 359.537 277.725 359.537C274.331 359.537 271.375 359.027 268.856 358.006C266.35 356.985 264.401 355.447 263.009 353.392C261.617 351.324 260.894 348.725 260.841 345.597H270.049C270.128 346.909 270.486 348.01 271.123 348.898C271.772 349.786 272.647 350.456 273.748 350.906C274.861 351.357 276.147 351.582 277.606 351.582C278.945 351.582 280.098 351.397 281.066 351.026C282.034 350.654 282.776 350.137 283.293 349.474C283.823 348.812 284.089 348.056 284.089 347.207C284.089 346.399 283.843 345.716 283.353 345.159C282.875 344.602 282.153 344.118 281.185 343.707C280.217 343.283 278.984 342.899 277.486 342.554L273.211 341.54C269.697 340.731 266.927 339.425 264.898 337.622C262.883 335.819 261.882 333.38 261.895 330.304C261.882 327.785 262.558 325.584 263.924 323.702C265.289 321.819 267.165 320.354 269.552 319.307C271.951 318.246 274.682 317.716 277.745 317.716C280.874 317.716 283.591 318.246 285.898 319.307C288.218 320.367 290.021 321.852 291.307 323.761C292.593 325.657 293.25 327.865 293.276 330.384H284.089Z" fill="white"/>
<path d="M310.794 318.273V359H301.209V318.273H310.794Z" fill="white"/>
<path d="M346.204 331.537C345.966 330.688 345.621 329.933 345.17 329.27C344.719 328.607 344.163 328.044 343.5 327.58C342.85 327.102 342.101 326.744 341.253 326.506C340.417 326.267 339.496 326.148 338.488 326.148C336.5 326.148 334.77 326.632 333.298 327.599C331.826 328.567 330.693 329.979 329.897 331.835C329.102 333.691 328.704 335.938 328.704 338.577C328.704 341.242 329.089 343.509 329.858 345.378C330.64 347.247 331.76 348.672 333.218 349.653C334.677 350.635 336.44 351.125 338.508 351.125C340.338 351.125 341.889 350.82 343.162 350.21C344.448 349.6 345.422 348.732 346.085 347.605C346.748 346.478 347.079 345.152 347.079 343.628L348.909 343.867H338.886V336.827H356.326V342.156C356.326 345.789 355.557 348.904 354.02 351.503C352.495 354.088 350.387 356.077 347.696 357.469C345.004 358.861 341.915 359.557 338.429 359.557C334.557 359.557 331.157 358.715 328.227 357.031C325.297 355.348 323.01 352.948 321.366 349.832C319.735 346.704 318.92 342.992 318.92 338.696C318.92 335.368 319.411 332.405 320.392 329.807C321.386 327.208 322.765 325.014 324.528 323.224C326.305 321.421 328.366 320.056 330.713 319.128C333.059 318.187 335.592 317.716 338.309 317.716C340.656 317.716 342.837 318.054 344.852 318.73C346.88 319.406 348.677 320.361 350.241 321.594C351.806 322.827 353.078 324.292 354.059 325.989C355.04 327.672 355.657 329.522 355.909 331.537H346.204Z" fill="white"/>
<path d="M399.055 318.273V359H390.902L374.396 335.057H374.118V359H364.532V318.273H372.805L389.152 342.176H389.49V318.273H399.055Z" fill="white"/>
<path d="M407.679 359V318.273H435.877V326.088H417.264V334.719H434.426V342.534H417.264V351.185H435.897V359H407.679Z" fill="white"/>
<path d="M444.426 359V318.273H461.091C464.154 318.273 466.785 318.823 468.986 319.923C471.2 321.01 472.904 322.568 474.097 324.597C475.29 326.625 475.887 329.025 475.887 331.795C475.887 334.58 475.277 336.959 474.057 338.935C472.851 340.897 471.114 342.395 468.847 343.429C466.593 344.45 463.915 344.96 460.813 344.96H450.154V337.364H459.063C460.574 337.364 461.84 337.165 462.861 336.767C463.882 336.369 464.651 335.759 465.168 334.938C465.698 334.102 465.963 333.055 465.963 331.795C465.963 330.51 465.698 329.442 465.168 328.594C464.651 327.745 463.882 327.109 462.861 326.685C461.84 326.247 460.574 326.028 459.063 326.028H454.012V359H444.426ZM467.156 340.406L477.298 359H466.798L456.875 340.406H467.156Z" fill="white"/>
<path d="M210.54 434V415.091H218C219.434 415.091 220.656 415.365 221.665 415.913C222.675 416.454 223.444 417.208 223.974 418.175C224.509 419.135 224.777 420.243 224.777 421.499C224.777 422.754 224.506 423.862 223.964 424.822C223.423 425.783 222.638 426.531 221.61 427.066C220.588 427.602 219.351 427.869 217.898 427.869H213.143V424.665H217.252C218.021 424.665 218.655 424.533 219.154 424.268C219.659 423.998 220.034 423.625 220.28 423.151C220.533 422.671 220.659 422.12 220.659 421.499C220.659 420.871 220.533 420.323 220.28 419.855C220.034 419.381 219.659 419.015 219.154 418.756C218.649 418.492 218.009 418.359 217.233 418.359H214.537V434H210.54Z" fill="#05060F"/>
<path d="M231.374 434V415.091H238.834C240.262 415.091 241.481 415.346 242.49 415.857C243.506 416.362 244.278 417.079 244.808 418.009C245.343 418.932 245.611 420.018 245.611 421.268C245.611 422.523 245.34 423.604 244.798 424.509C244.257 425.407 243.472 426.097 242.444 426.577C241.422 427.057 240.185 427.297 238.732 427.297H233.737V424.084H238.086C238.849 424.084 239.483 423.979 239.988 423.77C240.493 423.561 240.868 423.247 241.114 422.828C241.367 422.41 241.493 421.889 241.493 421.268C241.493 420.64 241.367 420.111 241.114 419.68C240.868 419.249 240.49 418.923 239.979 418.701C239.474 418.473 238.837 418.359 238.067 418.359H235.371V434H231.374ZM241.585 425.395L246.285 434H241.871L237.273 425.395H241.585Z" fill="#05060F"/>
<path d="M269.812 424.545C269.812 426.607 269.422 428.362 268.64 429.808C267.864 431.255 266.806 432.36 265.464 433.123C264.128 433.88 262.626 434.259 260.958 434.259C259.278 434.259 257.77 433.877 256.434 433.114C255.098 432.35 254.043 431.246 253.267 429.799C252.491 428.353 252.104 426.601 252.104 424.545C252.104 422.483 252.491 420.729 253.267 419.283C254.043 417.836 255.098 416.734 256.434 415.977C257.77 415.214 259.278 414.832 260.958 414.832C262.626 414.832 264.128 415.214 265.464 415.977C266.806 416.734 267.864 417.836 268.64 419.283C269.422 420.729 269.812 422.483 269.812 424.545ZM265.759 424.545C265.759 423.21 265.559 422.083 265.159 421.166C264.765 420.249 264.208 419.554 263.488 419.08C262.768 418.606 261.924 418.369 260.958 418.369C259.992 418.369 259.148 418.606 258.428 419.08C257.708 419.554 257.148 420.249 256.748 421.166C256.354 422.083 256.157 423.21 256.157 424.545C256.157 425.881 256.354 427.008 256.748 427.925C257.148 428.842 257.708 429.537 258.428 430.011C259.148 430.485 259.992 430.722 260.958 430.722C261.924 430.722 262.768 430.485 263.488 430.011C264.208 429.537 264.765 428.842 265.159 427.925C265.559 427.008 265.759 425.881 265.759 424.545Z" fill="#05060F"/>
<path d="M276.774 434V415.091H289.294V418.387H280.772V422.893H288.463V426.189H280.772V434H276.774Z" fill="#05060F"/>
<path d="M295.983 434V415.091H308.724V418.387H299.981V422.893H308.069V426.189H299.981V430.704H308.761V434H295.983Z" fill="#05060F"/>
<path d="M326.161 420.529C326.087 419.784 325.77 419.206 325.21 418.793C324.65 418.381 323.889 418.175 322.929 418.175C322.277 418.175 321.726 418.267 321.276 418.452C320.827 418.63 320.482 418.88 320.242 419.2C320.008 419.52 319.891 419.883 319.891 420.289C319.879 420.628 319.95 420.923 320.104 421.175C320.264 421.428 320.482 421.646 320.759 421.831C321.036 422.009 321.356 422.166 321.72 422.302C322.083 422.431 322.471 422.542 322.883 422.634L324.582 423.04C325.407 423.225 326.164 423.471 326.853 423.779C327.543 424.087 328.14 424.465 328.644 424.915C329.149 425.364 329.54 425.893 329.817 426.503C330.1 427.112 330.245 427.811 330.251 428.599C330.245 429.756 329.949 430.759 329.364 431.609C328.786 432.452 327.949 433.107 326.853 433.575C325.764 434.037 324.449 434.268 322.911 434.268C321.384 434.268 320.055 434.034 318.922 433.566C317.796 433.098 316.915 432.406 316.281 431.489C315.654 430.565 315.324 429.424 315.293 428.063H319.162C319.205 428.697 319.387 429.227 319.707 429.651C320.033 430.07 320.467 430.387 321.009 430.602C321.556 430.812 322.175 430.916 322.865 430.916C323.542 430.916 324.129 430.818 324.628 430.621C325.133 430.424 325.524 430.15 325.801 429.799C326.078 429.448 326.216 429.045 326.216 428.589C326.216 428.165 326.09 427.808 325.837 427.518C325.591 427.229 325.228 426.983 324.748 426.78C324.274 426.577 323.692 426.392 323.003 426.226L320.944 425.709C319.35 425.321 318.091 424.715 317.168 423.89C316.244 423.065 315.786 421.954 315.792 420.557C315.786 419.412 316.091 418.412 316.706 417.556C317.328 416.701 318.18 416.033 319.264 415.553C320.347 415.072 321.578 414.832 322.957 414.832C324.36 414.832 325.585 415.072 326.632 415.553C327.684 416.033 328.503 416.701 329.088 417.556C329.672 418.412 329.974 419.403 329.992 420.529H326.161Z" fill="#05060F"/>
<path d="M347.198 420.529C347.124 419.784 346.807 419.206 346.247 418.793C345.687 418.381 344.926 418.175 343.966 418.175C343.314 418.175 342.763 418.267 342.314 418.452C341.864 418.63 341.52 418.88 341.279 419.2C341.046 419.52 340.929 419.883 340.929 420.289C340.916 420.628 340.987 420.923 341.141 421.175C341.301 421.428 341.52 421.646 341.796 421.831C342.073 422.009 342.394 422.166 342.757 422.302C343.12 422.431 343.508 422.542 343.92 422.634L345.619 423.04C346.444 423.225 347.201 423.471 347.89 423.779C348.58 424.087 349.177 424.465 349.681 424.915C350.186 425.364 350.577 425.893 350.854 426.503C351.137 427.112 351.282 427.811 351.288 428.599C351.282 429.756 350.986 430.759 350.402 431.609C349.823 432.452 348.986 433.107 347.89 433.575C346.801 434.037 345.487 434.268 343.948 434.268C342.421 434.268 341.092 434.034 339.959 433.566C338.833 433.098 337.953 432.406 337.319 431.489C336.691 430.565 336.361 429.424 336.331 428.063H340.199C340.242 428.697 340.424 429.227 340.744 429.651C341.07 430.07 341.504 430.387 342.046 430.602C342.594 430.812 343.212 430.916 343.902 430.916C344.579 430.916 345.167 430.818 345.665 430.621C346.17 430.424 346.561 430.15 346.838 429.799C347.115 429.448 347.253 429.045 347.253 428.589C347.253 428.165 347.127 427.808 346.875 427.518C346.628 427.229 346.265 426.983 345.785 426.78C345.311 426.577 344.729 426.392 344.04 426.226L341.981 425.709C340.387 425.321 339.128 424.715 338.205 423.89C337.282 423.065 336.823 421.954 336.829 420.557C336.823 419.412 337.128 418.412 337.743 417.556C338.365 416.701 339.217 416.033 340.301 415.553C341.384 415.072 342.615 414.832 343.994 414.832C345.397 414.832 346.622 415.072 347.669 415.553C348.721 416.033 349.54 416.701 350.125 417.556C350.709 418.412 351.011 419.403 351.029 420.529H347.198Z" fill="#05060F"/>
<path d="M361.975 415.091V434H357.977V415.091H361.975Z" fill="#05060F"/>
<path d="M386.641 424.545C386.641 426.607 386.25 428.362 385.468 429.808C384.692 431.255 383.634 432.36 382.292 433.123C380.956 433.88 379.454 434.259 377.786 434.259C376.106 434.259 374.598 433.877 373.262 433.114C371.926 432.35 370.871 431.246 370.095 429.799C369.32 428.353 368.932 426.601 368.932 424.545C368.932 422.483 369.32 420.729 370.095 419.283C370.871 417.836 371.926 416.734 373.262 415.977C374.598 415.214 376.106 414.832 377.786 414.832C379.454 414.832 380.956 415.214 382.292 415.977C383.634 416.734 384.692 417.836 385.468 419.283C386.25 420.729 386.641 422.483 386.641 424.545ZM382.587 424.545C382.587 423.21 382.387 422.083 381.987 421.166C381.593 420.249 381.036 419.554 380.316 419.08C379.596 418.606 378.753 418.369 377.786 418.369C376.82 418.369 375.977 418.606 375.256 419.08C374.536 419.554 373.976 420.249 373.576 421.166C373.182 422.083 372.985 423.21 372.985 424.545C372.985 425.881 373.182 427.008 373.576 427.925C373.976 428.842 374.536 429.537 375.256 430.011C375.977 430.485 376.82 430.722 377.786 430.722C378.753 430.722 379.596 430.485 380.316 430.011C381.036 429.537 381.593 428.842 381.987 427.925C382.387 427.008 382.587 425.881 382.587 424.545Z" fill="#05060F"/>
<path d="M409.418 415.091V434H405.965L397.738 422.099H397.6V434H393.602V415.091H397.111L405.273 426.983H405.439V415.091H409.418Z" fill="#05060F"/>
<path d="M419.98 434H415.696L422.224 415.091H427.376L433.895 434H429.61L424.874 419.412H424.726L419.98 434ZM419.713 426.567H429.832V429.688H419.713V426.567Z" fill="#05060F"/>
<path d="M440.17 434V415.091H444.168V430.704H452.275V434H440.17Z" fill="#05060F"/>
<path d="M224.416 457.711H220.372C220.298 457.188 220.148 456.723 219.92 456.317C219.692 455.904 219.4 455.554 219.043 455.264C218.686 454.975 218.273 454.753 217.806 454.599C217.344 454.446 216.842 454.369 216.301 454.369C215.322 454.369 214.469 454.612 213.743 455.098C213.017 455.578 212.453 456.28 212.053 457.203C211.653 458.12 211.453 459.234 211.453 460.545C211.453 461.893 211.653 463.026 212.053 463.943C212.46 464.86 213.026 465.553 213.752 466.021C214.479 466.488 215.319 466.722 216.273 466.722C216.808 466.722 217.304 466.652 217.759 466.51C218.221 466.368 218.63 466.162 218.987 465.891C219.344 465.614 219.64 465.279 219.874 464.885C220.114 464.491 220.28 464.042 220.372 463.537L224.416 463.555C224.312 464.423 224.05 465.26 223.632 466.067C223.219 466.867 222.662 467.584 221.96 468.218C221.265 468.846 220.434 469.344 219.467 469.714C218.507 470.077 217.421 470.259 216.208 470.259C214.522 470.259 213.014 469.877 211.684 469.114C210.361 468.35 209.314 467.246 208.545 465.799C207.782 464.353 207.4 462.601 207.4 460.545C207.4 458.483 207.788 456.729 208.563 455.283C209.339 453.836 210.391 452.734 211.721 451.977C213.051 451.214 214.546 450.832 216.208 450.832C217.304 450.832 218.319 450.986 219.255 451.294C220.197 451.602 221.031 452.051 221.757 452.642C222.484 453.227 223.074 453.944 223.53 454.793C223.992 455.643 224.287 456.615 224.416 457.711Z" fill="#05060F"/>
<path d="M231.283 470V451.091H244.025V454.387H235.281V458.893H243.369V462.189H235.281V466.704H244.062V470H231.283Z" fill="#05060F"/>
<path d="M251.203 470V451.091H258.663C260.091 451.091 261.31 451.346 262.32 451.857C263.335 452.362 264.108 453.079 264.637 454.009C265.173 454.932 265.44 456.018 265.44 457.268C265.44 458.523 265.169 459.604 264.628 460.509C264.086 461.407 263.301 462.097 262.273 462.577C261.252 463.057 260.014 463.297 258.562 463.297H253.567V460.084H257.915C258.679 460.084 259.313 459.979 259.817 459.77C260.322 459.561 260.698 459.247 260.944 458.828C261.196 458.41 261.322 457.889 261.322 457.268C261.322 456.64 261.196 456.111 260.944 455.68C260.698 455.249 260.319 454.923 259.808 454.701C259.303 454.473 258.666 454.359 257.897 454.359H255.201V470H251.203ZM261.415 461.395L266.114 470H261.701L257.103 461.395H261.415Z" fill="#05060F"/>
<path d="M271.545 454.387V451.091H287.075V454.387H281.286V470H277.334V454.387H271.545Z" fill="#05060F"/>
<path d="M297.631 451.091V470H293.633V451.091H297.631Z" fill="#05060F"/>
<path d="M304.92 470V451.091H317.44V454.387H308.918V458.893H316.609V462.189H308.918V470H304.92Z" fill="#05060F"/>
<path d="M328.127 451.091V470H324.129V451.091H328.127Z" fill="#05060F"/>
<path d="M352.1 457.711H348.056C347.982 457.188 347.831 456.723 347.603 456.317C347.376 455.904 347.083 455.554 346.726 455.264C346.369 454.975 345.957 454.753 345.489 454.599C345.027 454.446 344.526 454.369 343.984 454.369C343.005 454.369 342.153 454.612 341.427 455.098C340.7 455.578 340.137 456.28 339.737 457.203C339.337 458.12 339.137 459.234 339.137 460.545C339.137 461.893 339.337 463.026 339.737 463.943C340.143 464.86 340.71 465.553 341.436 466.021C342.162 466.488 343.002 466.722 343.956 466.722C344.492 466.722 344.987 466.652 345.443 466.51C345.905 466.368 346.314 466.162 346.671 465.891C347.028 465.614 347.323 465.279 347.557 464.885C347.797 464.491 347.964 464.042 348.056 463.537L352.1 463.555C351.995 464.423 351.734 465.26 351.315 466.067C350.903 466.867 350.346 467.584 349.644 468.218C348.948 468.846 348.117 469.344 347.151 469.714C346.191 470.077 345.104 470.259 343.892 470.259C342.205 470.259 340.697 469.877 339.368 469.114C338.044 468.35 336.998 467.246 336.228 465.799C335.465 464.353 335.084 462.601 335.084 460.545C335.084 458.483 335.471 456.729 336.247 455.283C337.022 453.836 338.075 452.734 339.405 451.977C340.734 451.214 342.23 450.832 343.892 450.832C344.987 450.832 346.003 450.986 346.939 451.294C347.88 451.602 348.714 452.051 349.441 452.642C350.167 453.227 350.758 453.944 351.214 454.793C351.675 455.643 351.971 456.615 352.1 457.711Z" fill="#05060F"/>
<path d="M361.87 470H357.586L364.114 451.091H369.266L375.785 470H371.5L366.764 455.412H366.616L361.87 470ZM361.603 462.567H371.722V465.688H361.603V462.567Z" fill="#05060F"/>
<path d="M379.03 454.387V451.091H394.56V454.387H388.771V470H384.819V454.387H379.03Z" fill="#05060F"/>
<path d="M405.115 451.091V470H401.117V451.091H405.115Z" fill="#05060F"/>
<path d="M429.781 460.545C429.781 462.607 429.39 464.362 428.608 465.808C427.832 467.255 426.774 468.36 425.432 469.123C424.096 469.88 422.594 470.259 420.926 470.259C419.246 470.259 417.738 469.877 416.402 469.114C415.066 468.35 414.011 467.246 413.235 465.799C412.46 464.353 412.072 462.601 412.072 460.545C412.072 458.483 412.46 456.729 413.235 455.283C414.011 453.836 415.066 452.734 416.402 451.977C417.738 451.214 419.246 450.832 420.926 450.832C422.594 450.832 424.096 451.214 425.432 451.977C426.774 452.734 427.832 453.836 428.608 455.283C429.39 456.729 429.781 458.483 429.781 460.545ZM425.727 460.545C425.727 459.21 425.527 458.083 425.127 457.166C424.733 456.249 424.176 455.554 423.456 455.08C422.736 454.606 421.893 454.369 420.926 454.369C419.96 454.369 419.117 454.606 418.396 455.08C417.676 455.554 417.116 456.249 416.716 457.166C416.322 458.083 416.125 459.21 416.125 460.545C416.125 461.881 416.322 463.008 416.716 463.925C417.116 464.842 417.676 465.537 418.396 466.011C419.117 466.485 419.96 466.722 420.926 466.722C421.893 466.722 422.736 466.485 423.456 466.011C424.176 465.537 424.733 464.842 425.127 463.925C425.527 463.008 425.727 461.881 425.727 460.545Z" fill="#05060F"/>
<path d="M452.558 451.091V470H449.105L440.878 458.099H440.74V470H436.742V451.091H440.251L448.413 462.983H448.579V451.091H452.558Z" fill="#05060F"/>
</g>
<defs>
<clipPath id="clip0_6741_31320">
<rect width="660" height="660" fill="white"/>
</clipPath>
<clipPath id="clip1_6741_31320">
<rect width="64" height="64" fill="white" transform="translate(297.999 137)"/>
</clipPath>
</defs>
</svg>
