<svg width="26" height="26" viewBox="0 0 26 26" fill="none" xmlns="http://www.w3.org/2000/svg">
<path d="M13.0007 16.7916C15.0947 16.7916 16.7923 15.0941 16.7923 13C16.7923 10.9059 15.0947 9.20831 13.0007 9.20831C10.9066 9.20831 9.20898 10.9059 9.20898 13C9.20898 15.0941 10.9066 16.7916 13.0007 16.7916Z" stroke="white"/>
<path d="M21.8695 11.8455C22.2901 12.3561 22.5003 12.6113 22.5003 13C22.5003 13.3887 22.2901 13.6439 21.8695 14.1545C20.3311 16.0224 16.9378 19.5 12.9992 19.5C9.06047 19.5 5.66724 16.0224 4.12881 14.1545C3.7083 13.6439 3.49805 13.3887 3.49805 13C3.49805 12.6113 3.7083 12.3561 4.12881 11.8455C5.66724 9.97765 9.06047 6.5 12.9992 6.5C16.9378 6.5 20.3311 9.97765 21.8695 11.8455Z" stroke="white"/>
</svg>
