<?xml version="1.0" encoding="utf-8"?><!-- Uploaded to: SVG Repo, www.svgrepo.com, Generator: SVG Repo Mixer Tools -->
<svg version="1.1" id="designs" xmlns="http://www.w3.org/2000/svg" xmlns:xlink="http://www.w3.org/1999/xlink" 
	 width="800px" height="800px" viewBox="0 0 32 32" xml:space="preserve">
<style type="text/css">
	.sketchy_een{fill:#fff;}
</style>
<path class="sketchy_een" d="M23.789,20.172c0.029,0.001,0.053-0.013,0.081-0.015c0.007,0.004,0.013,0.013,0.02,0.018
	c0.18,0.106,0.4,0.135,0.601,0.078c0.423-0.116,0.639-0.544,0.544-0.957c-0.015-0.067-0.029-0.135-0.041-0.203
	c-0.02-0.258-0.013-0.519-0.02-0.777c-0.006-0.326-0.023-0.652-0.032-0.978c-0.019-0.618-0.057-1.236-0.055-1.854
	c0.004-0.711-0.046-1.422-0.07-2.133c-0.023-0.747-0.013-1.49,0.019-2.237c0.015-0.356,0.027-0.715,0.038-1.073
	c0.004-0.111-0.02-0.217-0.062-0.314c0.04-0.194,0.016-0.398-0.084-0.569c-0.152-0.26-0.4-0.366-0.686-0.394
	c-0.222-0.021-0.449-0.019-0.673-0.017c-0.101,0.002-0.199,0.002-0.296,0c-0.311-0.004-0.622-0.008-0.935-0.008
	c-0.73-0.002-1.46-0.059-2.191-0.074c-0.787-0.015-1.573-0.002-2.36-0.015c-0.789-0.015-1.579-0.053-2.368-0.089
	c-0.967-0.044-1.943-0.038-2.912-0.032c-0.546,0.006-1.092-0.004-1.636-0.013C10.191,8.506,9.71,8.498,9.228,8.498
	c-0.046,0-0.092,0-0.138,0C8.858,8.5,8.647,8.599,8.494,8.755C8.466,8.751,8.442,8.738,8.413,8.738
	c-0.406,0-0.783,0.349-0.766,0.766c0.019,0.481,0.036,0.965,0.047,1.448c0.009,0.375,0.028,0.753,0.013,1.128
	c-0.03,0.734-0.082,1.465-0.095,2.199c-0.011,0.743-0.023,1.486-0.036,2.229c-0.013,0.7-0.034,1.399-0.038,2.099
	c-0.002,0.299,0,0.597,0.03,0.897c0.023,0.216,0.072,0.398,0.231,0.559c0.102,0.102,0.234,0.16,0.373,0.194
	c0.016,0.011,0.024,0.031,0.041,0.041c0.127,0.074,0.264,0.11,0.409,0.11c0.798,0.104,1.6,0.083,2.404,0.07
	c0.728-0.013,1.456-0.019,2.182-0.027c0.258-0.002,0.516-0.002,0.773-0.002c0.43,0.002,0.861,0.002,1.291-0.013
	c0.751-0.025,1.501-0.042,2.252-0.083c0.591-0.032,1.183-0.044,1.774-0.068c0.563-0.023,1.122-0.061,1.685-0.081
	c0.227-0.008,0.455-0.004,0.684-0.006c0.212-0.002,0.427-0.023,0.639-0.034C22.803,20.136,23.296,20.151,23.789,20.172z
	 M9.115,18.859C9.115,18.858,9.115,18.858,9.115,18.859c0.047,0.006,0.093,0.011,0.14,0.019C9.209,18.871,9.162,18.865,9.115,18.859
	z M22.017,18.641c-0.593,0.023-1.187,0-1.78,0.027c-0.715,0.032-1.429,0.068-2.144,0.108c-0.745,0.042-1.49,0.091-2.237,0.101
	c-1.094,0.015-2.188,0.013-3.281,0.025c-1.151,0.013-2.311,0.097-3.459-0.047c-0.001-0.122-0.009-0.244-0.009-0.366
	c0-0.345-0.006-0.69-0.002-1.033c0.004-0.728-0.002-1.456-0.004-2.184c0-0.732-0.006-1.462,0.028-2.191
	c0.019-0.37,0.04-0.737,0.059-1.107c0.021-0.41,0.015-0.819,0.015-1.229c0-0.19-0.008-0.377-0.012-0.566
	c0.814-0.016,1.63-0.049,2.444-0.049c0.775-0.002,1.551,0,2.326,0.002c0.749,0,1.494,0.03,2.243,0.055
	c0.813,0.025,1.628,0.038,2.443,0.044c0.466,0.004,0.933,0.019,1.401,0.015c0.224-0.004,0.447-0.009,0.671,0
	c0.243,0.011,0.483,0.03,0.724,0.042c0.396,0.019,0.79,0.036,1.185,0.036c0.214-0.001,0.429-0.007,0.645-0.01
	c-0.028,1.44-0.017,2.881,0.044,4.32c0.028,0.644,0.032,1.291,0.068,1.935c0.034,0.639,0.049,1.28,0.059,1.92
	c0.001,0.037,0.003,0.074,0.004,0.111c-0.189,0.007-0.377,0.015-0.566,0.015C22.593,18.616,22.305,18.629,22.017,18.641z
	 M29.918,22.791c-0.01-0.143-0.059-0.271-0.124-0.39c0.01-0.049,0.03-0.095,0.03-0.147c0-0.432-0.36-0.79-0.79-0.79
	c-0.027,0-0.055,0-0.083,0c-0.182,0-0.364,0.004-0.546,0.007c0.008-0.099,0.007-0.201-0.014-0.304
	c-0.007-0.036-0.013-0.072-0.019-0.108c-0.029-0.308-0.025-0.618-0.03-0.928c-0.006-0.36-0.004-0.721-0.006-1.081
	c-0.002-0.743-0.01-1.486-0.014-2.229c-0.01-1.574-0.033-3.147-0.049-4.721c-0.008-0.854-0.022-1.71-0.014-2.567
	c0.006-0.917,0.039-1.833,0.051-2.75c0.002-0.156-0.057-0.294-0.137-0.417c0.015-0.061,0.038-0.12,0.038-0.182
	c0-0.423-0.354-0.816-0.785-0.816c-0.009,0-0.019,0-0.028,0c-0.704,0.027-1.406,0.025-2.107,0.027
	c-0.758,0.002-1.515,0.066-2.273,0.078c-1.583,0.027-3.167,0.049-4.752,0.076c-1.628,0.027-3.259,0.076-4.889,0.072
	c-0.78-0.002-1.56-0.021-2.34-0.01c-0.311,0.006-0.622,0.004-0.931,0.002C9.702,5.611,9.299,5.609,8.899,5.621
	c-0.565,0.02-1.13-0.002-1.697-0.01C6.539,5.6,5.879,5.584,5.216,5.572C4.774,5.564,4.407,5.946,4.407,6.381
	c0,0.104,0.024,0.202,0.06,0.293c0.001,0.784,0.025,1.568,0.01,2.352C4.462,9.825,4.446,10.62,4.43,11.418
	c-0.027,1.521,0.021,3.04,0.072,4.561c0.031,0.927,0.051,1.853,0.082,2.778c0.016,0.457,0.02,0.913,0.023,1.37
	c0.004,0.498,0.025,0.999,0.021,1.497c-0.001,0.113,0.023,0.221,0.065,0.321c-0.483,0.003-0.966-0.004-1.449-0.032
	c-0.241-0.013-0.453,0.109-0.602,0.286c-0.315,0.106-0.573,0.397-0.554,0.743c0.02,0.342,0.045,0.684,0.039,1.026
	c-0.004,0.283-0.043,0.569-0.066,0.85c-0.041,0.465-0.088,0.948-0.045,1.413c0.02,0.211,0.072,0.391,0.225,0.543
	C2.387,26.92,2.582,27,2.785,27c0.07,0,0.136-0.022,0.202-0.04c0.402,0.014,0.803,0.023,1.206,0.023
	c0.364,0.002,0.727-0.023,1.091-0.033c0.51-0.012,1.022-0.01,1.535-0.008c0.239,0,0.477,0.002,0.715,0
	c0.78-0.004,1.56,0.029,2.338,0.031c0.778,0.004,1.552,0.002,2.328-0.031c0.674-0.027,1.347-0.037,2.021-0.041
	c0.774-0.004,1.546-0.033,2.32-0.057c0.762-0.023,1.523-0.018,2.285-0.016c0.794,0.004,1.587-0.01,2.381-0.039
	c1.347-0.049,2.702-0.014,4.05-0.006c0.669,0.004,1.335,0.018,2.004,0.031c0.516,0.009,1.031-0.003,1.545-0.009
	c0.117,0.069,0.246,0.119,0.39,0.119c0.434,0,0.803-0.365,0.802-0.802C29.99,25.011,29.994,23.901,29.918,22.791z M27.042,25.126
	c-0.733,0-1.466-0.006-2.199-0.002c-0.751,0.004-1.503,0.004-2.256,0.014c-0.768,0.01-1.535,0.063-2.303,0.09
	c-0.782,0.027-1.564,0.022-2.346,0.027c-0.784,0.008-1.566,0.037-2.35,0.059c-0.708,0.02-1.415,0.023-2.123,0.035
	c-0.727,0.012-1.454,0.051-2.182,0.062c-1.396,0.021-2.79-0.061-4.185-0.072c-0.34-0.004-0.68-0.01-1.02-0.014
	c-0.332-0.002-0.667,0.016-0.999,0.025c-0.506,0.013-1.01-0.013-1.515-0.042c0.012-0.153,0.024-0.306,0.04-0.455
	c0.031-0.28,0.061-0.559,0.08-0.841c0.011-0.159,0.013-0.319,0.012-0.479c0.3,0.005,0.599,0.013,0.9,0.005
	c0.364-0.01,0.731-0.002,1.095-0.025c0.33-0.02,0.655-0.045,0.985-0.049c0.362-0.004,0.725-0.014,1.087-0.025
	c1.527-0.051,3.051-0.096,4.576-0.133c0.782-0.018,1.562-0.014,2.344-0.012c0.704,0.004,1.407,0.006,2.111-0.008
	c0.696-0.012,1.392-0.033,2.088-0.025c0.624,0.006,1.247,0.018,1.871,0.027c0.467,0.006,0.856-0.397,0.856-0.858
	c0-0.436-0.369-0.857-0.82-0.857c-0.012,0-0.024,0-0.036,0.001c-0.649,0.033-1.3,0.037-1.951,0.053
	c-0.739,0.018-1.48,0.041-2.219,0.059c-1.578,0.037-3.157-0.002-4.735,0.049c-0.735,0.023-1.47,0.02-2.203,0.033
	c-0.696,0.016-1.392,0.061-2.088,0.072c-0.344,0.004-0.688,0.004-1.034,0.018c-0.09,0.004-0.179,0.013-0.269,0.02
	c0.026-0.082,0.051-0.165,0.044-0.254c-0.029-0.387-0.049-0.77-0.047-1.157c0.004-0.372,0-0.741-0.008-1.112
	c-0.016-0.76-0.047-1.523-0.072-2.283c-0.023-0.712-0.045-1.425-0.088-2.137C6.037,14.161,6,13.385,5.986,12.607
	C5.955,10.8,5.997,8.993,6.03,7.186c0.624-0.002,1.248-0.004,1.872-0.011c0.354-0.004,0.71,0,1.063,0.002
	c0.356,0.002,0.71,0.004,1.065,0c0.362-0.004,0.725,0,1.087,0.002c0.364,0.002,0.727,0.004,1.091,0c0.819-0.01,1.64,0,2.461-0.018
	c1.619-0.031,3.237-0.096,4.858-0.086c0.756,0.004,1.511-0.006,2.268-0.021c0.811-0.018,1.622-0.023,2.432-0.053
	c0.832-0.031,1.667-0.038,2.5-0.018c0.004,0.811,0.018,1.618,0.031,2.427c0.012,0.811,0,1.62-0.01,2.43
	c-0.02,1.583-0.043,3.165-0.051,4.748c-0.004,0.819-0.014,1.64-0.016,2.461c-0.002,0.782-0.006,1.562,0.065,2.342
	c0.003,0.04,0.017,0.073,0.023,0.11c-0.076,0.003-0.153,0-0.229,0.005c-0.416,0.027-0.831,0.029-1.247,0.029
	c-0.549,0-1.101,0.008-1.65,0.016c-0.434,0.006-0.794,0.356-0.794,0.794c0,0.424,0.36,0.805,0.794,0.794
	c0.542-0.014,1.085-0.037,1.626-0.066c0.424-0.021,0.846-0.02,1.271-0.027c0.589-0.01,1.178-0.003,1.768,0
	c0.047,0.58,0.095,1.161,0.103,1.741c0.001,0.107-0.002,0.214-0.003,0.32C27.953,25.113,27.497,25.125,27.042,25.126z"/>
</svg>